<svg width="400" height="400" viewBox="0 0 400 400" fill="none" xmlns="http://www.w3.org/2000/svg">
<circle cx="200" cy="200" r="200" fill="#FFF4F0" fill-opacity="0.25"/>
<mask id="mask0_286_303" style="mask-type:alpha" maskUnits="userSpaceOnUse" x="0" y="0" width="400" height="400">
<path d="M400 200C400 310.457 310.457 400 200 400C89.5431 400 0 310.457 0 200C0 89.5431 89.5431 0 200 0C310.457 0 400 89.5431 400 200Z" fill="#301F40"/>
</mask>
<g mask="url(#mask0_286_303)">
<path d="M275.497 229.8H126.629C120.685 229.8 115.867 234.744 115.867 240.843V292.378C115.867 298.477 120.685 303.421 126.629 303.421H275.497C281.441 303.421 286.259 298.477 286.259 292.378V240.843C286.259 234.744 281.441 229.8 275.497 229.8Z" fill="#BAB186"/>
<path d="M223.956 234.825H174.505C172.598 234.825 171.052 236.411 171.052 238.368V328.585C171.052 330.542 172.598 332.128 174.505 332.128H223.956C225.863 332.128 227.409 330.542 227.409 328.585V238.368C227.409 236.411 225.863 234.825 223.956 234.825Z" fill="#BF9D8E"/>
<path d="M147.883 489.884C122.97 489.664 98.0655 489.452 73.1524 489.231C73.0986 451.648 73.0448 414.064 73 376.471C73 345.992 75.1074 303.983 91.5816 303.983H146.681" fill="#EDBFA6"/>
<path d="M262.233 478.841C283.604 478.768 304.984 478.685 326.354 478.611C326.57 442.942 326.785 407.282 327 371.612C327 342.79 325.18 303.071 310.929 303.071H263.274" fill="#EDBFA6"/>
<path d="M265.525 303.531H130.216C120.28 303.531 112.226 311.796 112.226 321.992V511.455C112.226 521.651 120.28 529.916 130.216 529.916H265.525C275.46 529.916 283.514 521.651 283.514 511.455V321.992C283.514 311.796 275.46 303.531 265.525 303.531Z" fill="#7F4EC3"/>
<path d="M187.898 362.355C190.87 362.355 193.279 359.883 193.279 356.833C193.279 353.784 190.87 351.312 187.898 351.312C184.926 351.312 182.517 353.784 182.517 356.833C182.517 359.883 184.926 362.355 187.898 362.355Z" fill="#FF7442"/>
<path d="M196.866 367.876C199.838 367.876 202.247 365.404 202.247 362.355C202.247 359.305 199.838 356.833 196.866 356.833C193.894 356.833 191.485 359.305 191.485 362.355C191.485 365.404 193.894 367.876 196.866 367.876Z" fill="#FF7442"/>
<path d="M207.628 367.876C210.6 367.876 213.009 365.404 213.009 362.355C213.009 359.305 210.6 356.833 207.628 356.833C204.656 356.833 202.247 359.305 202.247 362.355C202.247 365.404 204.656 367.876 207.628 367.876Z" fill="#FF7442"/>
<path d="M218.389 365.115C221.361 365.115 223.77 362.643 223.77 359.594C223.77 356.544 221.361 354.072 218.389 354.072C215.417 354.072 213.008 356.544 213.008 359.594C213.008 362.643 215.417 365.115 218.389 365.115Z" fill="#FF7442"/>
<path d="M225.563 356.833C228.535 356.833 230.944 354.361 230.944 351.311C230.944 348.262 228.535 345.79 225.563 345.79C222.592 345.79 220.183 348.262 220.183 351.311C220.183 354.361 222.592 356.833 225.563 356.833Z" fill="#FF7442"/>
<path d="M181.62 353.152C184.592 353.152 187.001 350.68 187.001 347.63C187.001 344.581 184.592 342.109 181.62 342.109C178.648 342.109 176.239 344.581 176.239 347.63C176.239 350.68 178.648 353.152 181.62 353.152Z" fill="#FF7442"/>
<path d="M175.343 343.95C178.314 343.95 180.723 341.477 180.723 338.428C180.723 335.378 178.314 332.906 175.343 332.906C172.371 332.906 169.962 335.378 169.962 338.428C169.962 341.477 172.371 343.95 175.343 343.95Z" fill="#FF7442"/>
<path d="M171.755 334.747C174.727 334.747 177.136 332.275 177.136 329.225C177.136 326.176 174.727 323.704 171.755 323.704C168.784 323.704 166.375 326.176 166.375 329.225C166.375 332.275 168.784 334.747 171.755 334.747Z" fill="#FF7442"/>
<path d="M168.168 325.544C171.14 325.544 173.549 323.072 173.549 320.023C173.549 316.973 171.14 314.501 168.168 314.501C165.197 314.501 162.788 316.973 162.788 320.023C162.788 323.072 165.197 325.544 168.168 325.544Z" fill="#FF7442"/>
<path d="M164.581 315.421C167.553 315.421 169.962 312.949 169.962 309.9C169.962 306.85 167.553 304.378 164.581 304.378C161.609 304.378 159.2 306.85 159.2 309.9C159.2 312.949 161.609 315.421 164.581 315.421Z" fill="#FF7442"/>
<path d="M229.447 346.406C232.418 346.406 234.828 343.934 234.828 340.885C234.828 337.835 232.418 335.363 229.447 335.363C226.475 335.363 224.066 337.835 224.066 340.885C224.066 343.934 226.475 346.406 229.447 346.406Z" fill="#FF7442"/>
<path d="M234.532 336.587C237.503 336.587 239.912 334.115 239.912 331.066C239.912 328.016 237.503 325.544 234.532 325.544C231.56 325.544 229.151 328.016 229.151 331.066C229.151 334.115 231.56 336.587 234.532 336.587Z" fill="#FF7442"/>
<path d="M239.015 326.464C241.987 326.464 244.396 323.992 244.396 320.943C244.396 317.893 241.987 315.421 239.015 315.421C236.043 315.421 233.634 317.893 233.634 320.943C233.634 323.992 236.043 326.464 239.015 326.464Z" fill="#FF7442"/>
<path d="M137.005 333.053C158.07 335.336 169.451 337.517 173.854 328.434C176.499 322.967 175.603 315.513 174.527 310.323C153.819 259.515 134.996 191.444 138.61 113.958C138.915 107.433 139.363 101.047 139.955 94.8072C135.659 93.8869 127.848 92.9206 120.145 96.7673C120.145 96.7673 110.71 101.488 104.63 115.034C96.3706 133.44 92.9897 216.907 96.272 329.805C113.831 330.725 127.839 332.06 137.005 333.053Z" fill="#FAF0B3"/>
<path d="M273.829 168.161C277.291 227.205 246.387 264.558 204.363 271.709C203.637 271.838 202.874 271.792 202.148 271.663C159.532 264.154 126.664 228.254 129.938 167.756C133.166 108.206 157.003 63.8956 204.363 63.8036C244.172 63.73 270.17 105.731 273.829 168.161Z" fill="#EDBFA6"/>
<path d="M117.544 110.415C123.086 122.691 160.779 119.627 188.239 106.789C213.806 94.8348 240.298 69.8129 235.141 57.417C230.002 45.0579 194.166 47.1285 167.953 58.3005C139.211 70.5492 111.948 98.0465 117.535 110.415H117.544Z" fill="#FAF0B3"/>
<path d="M278.295 137.047C271.533 140.701 252.225 123.575 240.943 107.47C230.119 92.0188 220.496 68.6534 226.523 63.6472C232.433 58.733 252.566 72.1964 264.708 88.2273C278.833 106.881 285.335 133.246 278.295 137.047Z" fill="#FAF0B3"/>
<path d="M209.573 182.646C209.654 186.042 205.914 188.895 201.206 189.014C196.498 189.134 192.624 186.484 192.534 183.088" stroke="#42210B" stroke-miterlimit="10"/>
<path d="M225.725 211.966C225.725 222.815 212.981 234.052 202.408 234.052C191.835 234.052 176.401 222.815 176.401 211.966" fill="#FFFAFA"/>
<path d="M225.725 211.966C225.725 222.815 212.981 234.052 202.408 234.052C191.835 234.052 176.401 222.815 176.401 211.966" stroke="#E35D6A" stroke-width="2" stroke-miterlimit="10"/>
<path d="M263.336 326.078L239.123 315.035C237.329 310.185 235.536 305.335 233.742 300.485C250.503 249.098 261.094 188.269 254.01 121.66C253.391 115.817 252.647 110.065 251.795 104.424C255.947 96.0955 259.794 92.0556 263.336 92.3225C277.596 93.3992 286.868 164.259 291.137 304.903C281.873 311.961 272.6 319.01 263.336 326.069V326.078Z" fill="#FAF0B3"/>
<path d="M234.89 173.877C239.561 173.877 243.347 168.212 243.347 161.223C243.347 154.235 239.561 148.57 234.89 148.57C230.22 148.57 226.434 154.235 226.434 161.223C226.434 168.212 230.22 173.877 234.89 173.877Z" fill="#006837"/>
<path d="M218.299 141.98C218.165 137.747 222.532 135.262 225.877 133.909C234.334 130.771 246.253 130.992 253.57 136.845C255.032 138.087 256.27 139.974 256.108 141.989C255.472 138.05 251.355 136.375 248.073 135.271C241.06 133.228 233.348 133.228 226.335 135.271C223.043 136.375 218.936 138.059 218.299 141.989V141.98Z" fill="#B38B67"/>
<path d="M176.578 150.337C171.413 145.892 165.817 144.99 160.122 149.048C154.974 152.288 148.813 151.551 143.388 149.416C145.63 151.073 148.93 151.956 151.871 152.186C154.92 152.389 157.988 151.349 160.49 149.683C161.763 148.892 162.965 148.036 164.319 147.53C168.525 145.873 173.108 147.695 176.524 150.41L176.578 150.337Z" fill="#B38B67"/>
<path d="M224.595 150.207C229.76 145.762 235.356 144.86 241.051 148.919C246.199 152.158 252.36 151.422 257.785 149.287C255.543 150.943 252.243 151.827 249.301 152.057C246.252 152.259 243.185 151.219 240.683 149.554C239.41 148.762 238.208 147.906 236.854 147.4C232.648 145.744 228.065 147.566 224.649 150.281L224.595 150.207Z" fill="#B38B67"/>
<path d="M137.785 159.511C126.889 159.511 118.055 168.161 118.055 178.836C118.055 189.511 126.889 198.162 137.785 198.162" fill="#EDBFA6"/>
<path d="M124.333 198.162C127.305 198.162 129.714 195.69 129.714 192.64C129.714 189.591 127.305 187.119 124.333 187.119C121.361 187.119 118.952 189.591 118.952 192.64C118.952 195.69 121.361 198.162 124.333 198.162Z" fill="#FF7442"/>
<path d="M178.141 303.992C171.863 311.05 165.586 318.099 159.308 325.158C154.761 323.842 140.099 318.946 130.61 303.992C125.929 296.62 124.162 289.406 123.436 284.666C135.695 283.442 147.946 282.209 160.205 280.985C166.186 288.651 172.159 296.326 178.141 303.992Z" fill="#FAF0B3"/>
<path d="M167.971 174.244C172.642 174.244 176.428 168.579 176.428 161.59C176.428 154.602 172.642 148.937 167.971 148.937C163.3 148.937 159.514 154.602 159.514 161.59C159.514 168.579 163.3 174.244 167.971 174.244Z" fill="#006837"/>
<path d="M145.856 142.017C145.722 137.783 150.071 135.271 153.425 133.909C160.644 131.213 168.877 131.213 176.105 133.909C179.459 135.271 183.809 137.793 183.674 142.026C183.046 138.087 178.939 136.385 175.648 135.271C168.635 133.21 160.904 133.21 153.882 135.271C150.591 136.385 146.484 138.087 145.856 142.026V142.017Z" fill="#B38B67"/>
</g>
<mask id="mask1_286_303" style="mask-type:alpha" maskUnits="userSpaceOnUse" x="0" y="0" width="400" height="400">
<path d="M400 200C400 310.457 310.457 400 200 400C89.5431 400 0 310.457 0 200C0 89.5431 89.5431 0 200 0C310.457 0 400 89.5431 400 200Z" fill="#301F40"/>
</mask>
<g mask="url(#mask1_286_303)">
<path d="M275.497 229.8H126.629C120.685 229.8 115.867 234.744 115.867 240.843V292.378C115.867 298.477 120.685 303.421 126.629 303.421H275.497C281.441 303.421 286.259 298.477 286.259 292.378V240.843C286.259 234.744 281.441 229.8 275.497 229.8Z" fill="#BAB186"/>
<path d="M223.956 234.825H174.505C172.598 234.825 171.052 236.411 171.052 238.368V328.585C171.052 330.542 172.598 332.128 174.505 332.128H223.956C225.863 332.128 227.409 330.542 227.409 328.585V238.368C227.409 236.411 225.863 234.825 223.956 234.825Z" fill="#BF9D8E"/>
<path d="M147.883 489.884C122.97 489.664 98.0655 489.452 73.1524 489.231C73.0986 451.648 73.0448 414.064 73 376.471C73 345.992 75.1074 303.983 91.5816 303.983H146.681" fill="#EDBFA6"/>
<path d="M262.233 478.841C283.604 478.768 304.984 478.685 326.354 478.611C326.57 442.942 326.785 407.282 327 371.612C327 342.79 325.18 303.071 310.929 303.071H263.274" fill="#EDBFA6"/>
<path d="M265.525 303.531H130.216C120.28 303.531 112.226 311.796 112.226 321.992V511.455C112.226 521.651 120.28 529.916 130.216 529.916H265.525C275.46 529.916 283.514 521.651 283.514 511.455V321.992C283.514 311.796 275.46 303.531 265.525 303.531Z" fill="#7F4EC3"/>
<path d="M187.898 362.355C190.87 362.355 193.279 359.883 193.279 356.833C193.279 353.784 190.87 351.312 187.898 351.312C184.926 351.312 182.517 353.784 182.517 356.833C182.517 359.883 184.926 362.355 187.898 362.355Z" fill="#FF7442"/>
<path d="M196.866 367.876C199.838 367.876 202.247 365.404 202.247 362.355C202.247 359.305 199.838 356.833 196.866 356.833C193.894 356.833 191.485 359.305 191.485 362.355C191.485 365.404 193.894 367.876 196.866 367.876Z" fill="#FF7442"/>
<path d="M207.628 367.876C210.6 367.876 213.009 365.404 213.009 362.355C213.009 359.305 210.6 356.833 207.628 356.833C204.656 356.833 202.247 359.305 202.247 362.355C202.247 365.404 204.656 367.876 207.628 367.876Z" fill="#FF7442"/>
<path d="M218.389 365.115C221.361 365.115 223.77 362.643 223.77 359.594C223.77 356.544 221.361 354.072 218.389 354.072C215.417 354.072 213.008 356.544 213.008 359.594C213.008 362.643 215.417 365.115 218.389 365.115Z" fill="#FF7442"/>
<path d="M225.563 356.833C228.535 356.833 230.944 354.361 230.944 351.311C230.944 348.262 228.535 345.79 225.563 345.79C222.592 345.79 220.183 348.262 220.183 351.311C220.183 354.361 222.592 356.833 225.563 356.833Z" fill="#FF7442"/>
<path d="M181.62 353.152C184.592 353.152 187.001 350.68 187.001 347.63C187.001 344.581 184.592 342.109 181.62 342.109C178.648 342.109 176.239 344.581 176.239 347.63C176.239 350.68 178.648 353.152 181.62 353.152Z" fill="#FF7442"/>
<path d="M175.343 343.95C178.314 343.95 180.723 341.477 180.723 338.428C180.723 335.378 178.314 332.906 175.343 332.906C172.371 332.906 169.962 335.378 169.962 338.428C169.962 341.477 172.371 343.95 175.343 343.95Z" fill="#FF7442"/>
<path d="M171.755 334.747C174.727 334.747 177.136 332.275 177.136 329.225C177.136 326.176 174.727 323.704 171.755 323.704C168.784 323.704 166.375 326.176 166.375 329.225C166.375 332.275 168.784 334.747 171.755 334.747Z" fill="#FF7442"/>
<path d="M168.168 325.544C171.14 325.544 173.549 323.072 173.549 320.023C173.549 316.973 171.14 314.501 168.168 314.501C165.197 314.501 162.788 316.973 162.788 320.023C162.788 323.072 165.197 325.544 168.168 325.544Z" fill="#FF7442"/>
<path d="M164.581 315.421C167.553 315.421 169.962 312.949 169.962 309.9C169.962 306.85 167.553 304.378 164.581 304.378C161.609 304.378 159.2 306.85 159.2 309.9C159.2 312.949 161.609 315.421 164.581 315.421Z" fill="#FF7442"/>
<path d="M229.447 346.406C232.418 346.406 234.828 343.934 234.828 340.885C234.828 337.835 232.418 335.363 229.447 335.363C226.475 335.363 224.066 337.835 224.066 340.885C224.066 343.934 226.475 346.406 229.447 346.406Z" fill="#FF7442"/>
<path d="M234.532 336.587C237.503 336.587 239.912 334.115 239.912 331.066C239.912 328.016 237.503 325.544 234.532 325.544C231.56 325.544 229.151 328.016 229.151 331.066C229.151 334.115 231.56 336.587 234.532 336.587Z" fill="#FF7442"/>
<path d="M239.015 326.464C241.987 326.464 244.396 323.992 244.396 320.943C244.396 317.893 241.987 315.421 239.015 315.421C236.043 315.421 233.634 317.893 233.634 320.943C233.634 323.992 236.043 326.464 239.015 326.464Z" fill="#FF7442"/>
<path d="M137.005 333.053C158.07 335.336 169.451 337.517 173.854 328.434C176.499 322.967 175.603 315.513 174.527 310.323C153.819 259.515 134.996 191.444 138.61 113.958C138.915 107.433 139.363 101.047 139.955 94.8072C135.659 93.8869 127.848 92.9206 120.145 96.7673C120.145 96.7673 110.71 101.488 104.63 115.034C96.3706 133.44 92.9897 216.907 96.272 329.805C113.831 330.725 127.839 332.06 137.005 333.053Z" fill="#FAF0B3"/>
<path d="M273.829 168.161C277.291 227.205 246.387 264.558 204.363 271.709C203.637 271.838 202.874 271.792 202.148 271.663C159.532 264.154 126.664 228.254 129.938 167.756C133.166 108.206 157.003 63.8956 204.363 63.8036C244.172 63.73 270.17 105.731 273.829 168.161Z" fill="#EDBFA6"/>
<path d="M117.544 110.415C123.086 122.691 160.779 119.627 188.239 106.789C213.806 94.8348 240.298 69.8129 235.141 57.417C230.002 45.0579 194.166 47.1285 167.953 58.3005C139.211 70.5492 111.948 98.0465 117.535 110.415H117.544Z" fill="#FAF0B3"/>
<path d="M278.295 137.047C271.533 140.701 252.225 123.575 240.943 107.47C230.119 92.0188 220.496 68.6534 226.523 63.6472C232.433 58.733 252.566 72.1964 264.708 88.2273C278.833 106.881 285.335 133.246 278.295 137.047Z" fill="#FAF0B3"/>
<path d="M209.573 182.646C209.654 186.042 205.914 188.895 201.206 189.014C196.498 189.134 192.624 186.484 192.534 183.088" stroke="#42210B" stroke-miterlimit="10"/>
<path d="M225.725 211.966C225.725 222.815 212.981 234.052 202.408 234.052C191.835 234.052 176.401 222.815 176.401 211.966" fill="#FFFAFA"/>
<path d="M225.725 211.966C225.725 222.815 212.981 234.052 202.408 234.052C191.835 234.052 176.401 222.815 176.401 211.966" stroke="#E35D6A" stroke-width="6" stroke-miterlimit="10"/>
<path d="M263.336 326.078L239.123 315.035C237.329 310.185 235.536 305.335 233.742 300.485C250.503 249.098 261.094 188.269 254.01 121.66C253.391 115.817 252.647 110.065 251.795 104.424C255.947 96.0955 259.794 92.0556 263.336 92.3225C277.596 93.3992 286.868 164.259 291.137 304.903C281.873 311.961 272.6 319.01 263.336 326.069V326.078Z" fill="#FAF0B3"/>
<path d="M234.89 173.877C239.561 173.877 243.347 168.212 243.347 161.223C243.347 154.235 239.561 148.57 234.89 148.57C230.22 148.57 226.434 154.235 226.434 161.223C226.434 168.212 230.22 173.877 234.89 173.877Z" fill="#006837"/>
<path d="M218.299 141.98C218.165 137.747 222.532 135.262 225.877 133.909C234.334 130.771 246.253 130.992 253.57 136.845C255.032 138.087 256.27 139.974 256.108 141.989C255.472 138.05 251.355 136.375 248.073 135.271C241.06 133.228 233.348 133.228 226.335 135.271C223.043 136.375 218.936 138.059 218.299 141.989V141.98Z" fill="#B38B67"/>
<path d="M176.578 150.337C171.413 145.892 165.817 144.99 160.122 149.048C154.974 152.288 148.813 151.551 143.388 149.416C145.63 151.073 148.93 151.956 151.871 152.186C154.92 152.389 157.988 151.349 160.49 149.683C161.763 148.892 162.965 148.036 164.319 147.53C168.525 145.873 173.108 147.695 176.524 150.41L176.578 150.337Z" fill="#B38B67"/>
<path d="M224.595 150.207C229.76 145.762 235.356 144.86 241.051 148.919C246.199 152.158 252.36 151.422 257.785 149.287C255.543 150.943 252.243 151.827 249.301 152.057C246.252 152.259 243.185 151.219 240.683 149.554C239.41 148.762 238.208 147.906 236.854 147.4C232.648 145.744 228.065 147.566 224.649 150.281L224.595 150.207Z" fill="#B38B67"/>
<path d="M137.785 159.511C126.889 159.511 118.055 168.161 118.055 178.836C118.055 189.511 126.889 198.162 137.785 198.162" fill="#EDBFA6"/>
<path d="M124.333 198.162C127.305 198.162 129.714 195.69 129.714 192.64C129.714 189.591 127.305 187.119 124.333 187.119C121.361 187.119 118.952 189.591 118.952 192.64C118.952 195.69 121.361 198.162 124.333 198.162Z" fill="#FF7442"/>
<path d="M178.141 303.992C171.863 311.05 165.586 318.099 159.308 325.158C154.761 323.842 140.099 318.946 130.61 303.992C125.929 296.62 124.162 289.406 123.436 284.666C135.695 283.442 147.946 282.209 160.205 280.985C166.186 288.651 172.159 296.326 178.141 303.992Z" fill="#FAF0B3"/>
<path d="M167.971 174.244C172.642 174.244 176.428 168.579 176.428 161.59C176.428 154.602 172.642 148.937 167.971 148.937C163.3 148.937 159.514 154.602 159.514 161.59C159.514 168.579 163.3 174.244 167.971 174.244Z" fill="#006837"/>
<path d="M145.856 142.017C145.722 137.783 150.071 135.271 153.425 133.909C160.644 131.213 168.877 131.213 176.105 133.909C179.459 135.271 183.809 137.793 183.674 142.026C183.046 138.087 178.939 136.385 175.648 135.271C168.635 133.21 160.904 133.21 153.882 135.271C150.591 136.385 146.484 138.087 145.856 142.026V142.017Z" fill="#B38B67"/>
</g>
<circle cx="200" cy="200" r="195" stroke="#7F4EC3" stroke-width="10"/>
<line x1="173.5" y1="212" x2="228.6" y2="212" stroke="#E35D6A" stroke-width="2"/>
</svg>
